<svg xmlns="http://www.w3.org/2000/svg" viewBox="0 0 180 32">
<style type="text/css">
	.color{fill:#34A263;}
</style>
<g>
	<g>
		<path d="M30.2,27.5c-0.7-0.5-1.3-1.1-2-1.7c-1-0.9-1.9-1.8-2.7-2.8c-0.2-0.3-0.5-0.5-0.8-0.7c-0.5-0.3-1-0.3-1.5,0.1
			c-0.2,0.2-0.4,0.4-0.6,0.7c-0.2,0.3-0.5,0.6-0.8,0.8c-0.6,0.5-1.3,0.5-2,0c-0.3-0.2-0.5-0.5-0.8-0.8c-0.2-0.3-0.4-0.5-0.7-0.7
			c-0.4-0.3-0.9-0.4-1.3-0.1c-0.3,0.2-0.6,0.5-0.9,0.8c-1.3,1.6-2.8,3-4.4,4.3c-0.1,0.1-0.2,0.1-0.2,0.2c0,0,0,0-0.1,0
			c-0.1-0.6-0.2-1.2-0.4-1.9c-0.1-0.8-0.2-1.5-0.1-2.3c0.2-1.1,0.7-2,1.6-2.7c0.3-0.2,0.5-0.4,0.8-0.6c0.8-0.7,0.9-1.4,0.4-2.3
			c-0.5-0.8-1.1-1.5-1.7-2.2C9.8,12.9,7.3,10.5,4.9,8C3.7,6.5,2.2,5,0.7,3.6c0,0-0.1-0.1-0.2-0.1c0.4-0.1,0.8-0.2,1.2-0.2
			C2.6,3.1,3.5,3,4.4,3.2c1.2,0.2,2.3,0.7,3.1,1.6C8.7,6,9.8,7.2,11.1,8.4c2.8,2.7,5.6,5.4,8.3,8.2c0.3,0.3,0.5,0.5,0.9,0.7
			c0.5,0.3,1,0.3,1.5,0c0.3-0.2,0.6-0.4,0.8-0.6c3.6-3.7,7.4-7.2,11-10.9c0.3-0.3,0.6-0.6,0.9-1c1-1,2.1-1.6,3.5-1.7
			c1.1-0.1,2.2,0.1,3.4,0.3c0,0.1-0.1,0.1-0.2,0.2c-2.6,2.6-5.3,5.1-7.9,7.8c-1.7,1.8-3.4,3.7-4.9,5.7c-0.2,0.3-0.4,0.6-0.6,1
			c-0.3,0.6-0.2,1.2,0.3,1.7c0.3,0.3,0.5,0.5,0.8,0.7c1,0.7,1.6,1.6,1.8,2.8c0.1,0.8,0,1.6-0.1,2.3c-0.1,0.6-0.2,1.1-0.3,1.7
			C30.2,27.4,30.2,27.4,30.2,27.5z"/>
		<path class="color" d="M12.8,0.1c0.4,0.4,0.7,0.7,1,1.1C14.9,2.1,16,3,17,4c0.7,0.6,1.3,1.3,1.8,2.1c1.1,1.7,1.3,3.6,0.7,5.6
			c0,0.2,0,0.4-0.2,0.5c-0.3,0.1-0.5,0-0.8-0.1c-0.2-0.1-0.3-0.3-0.4-0.5c-0.5-1.1-1.3-2-2.1-2.9c-0.8-0.9-1.6-1.7-2.3-2.6
			c-0.8-1.1-1.3-2.2-1.3-3.6C12.3,1.5,12.5,0.9,12.8,0.1z"/>
		<path class="color" d="M29.1,0.1C29.9,1.8,29.8,3.4,29,5c-0.4,0.8-1,1.5-1.6,2.2C26.6,8,25.7,8.8,25,9.7c-0.4,0.5-0.7,1-1,1.6
			c-0.1,0.2-0.2,0.4-0.4,0.6c-0.1,0.1-0.3,0.2-0.5,0.3c-0.3,0-0.4,0-0.5-0.3c-0.7-2.4-0.4-4.6,1.3-6.6c0.4-0.5,0.9-1,1.4-1.5
			c1-1,2.2-1.9,3.1-2.9C28.6,0.6,28.8,0.3,29.1,0.1z"/>
		<path class="color" d="M3.4,10.1c0,0.1,0.1,0.1,0.1,0.2c2.4,2.5,4.8,4.9,7.2,7.4c0,0,0,0,0.1,0.1c0.6,0.7,0.6,1.1-0.2,1.7
			c-0.2,0.2-0.4,0.4-0.5,0.6c-0.1,0.1-0.2,0.3-0.4,0.4C9.3,20.9,9,21,8.5,20.7c-0.6-0.3-1.2-0.6-1.7-1.1c-1.4-1.2-2.3-2.8-2.9-4.5
			c-0.5-1.5-0.7-3-0.6-4.6C3.3,10.4,3.3,10.3,3.4,10.1C3.3,10.2,3.3,10.1,3.4,10.1z"/>
		<path class="color" d="M38.6,10.2c0.1,0.1,0,0.2,0,0.2c0.1,2.8-0.6,5.4-2.2,7.7c-0.7,1-1.6,1.8-2.7,2.4c-0.1,0.1-0.2,0.1-0.4,0.2
			c-0.4,0.2-0.8,0.1-1.2-0.2c-0.2-0.2-0.3-0.3-0.4-0.5c-0.2-0.2-0.3-0.4-0.5-0.5c-0.7-0.5-0.7-1-0.2-1.6c0.9-1,1.9-2,2.9-2.9
			c1.5-1.5,2.9-3,4.4-4.5C38.4,10.3,38.5,10.2,38.6,10.2z"/>
		<path class="color" d="M25.6,26.6c0,0.8-0.3,1.5-0.9,2c-0.4,0.4-0.9,0.8-1.3,1.1c-0.6,0.4-1.1,0.9-1.4,1.5c-0.5,0.9-1.6,0.9-2.2,0
			c-0.4-0.7-1-1.2-1.6-1.7c-0.4-0.3-0.8-0.6-1.2-1c-0.6-0.7-1-1.5-0.8-2.4c0-0.3,0.2-0.5,0.3-0.6c0.4-0.3,0.8-0.4,1.2-0.5
			c0.1,0,0.2,0,0.2,0.1c0.3,0.6,0.6,1,1.2,1.4c1,0.6,2.1,0.6,3.1,0.2c0.5-0.2,0.9-0.6,1.2-1c0.1-0.2,0.3-0.3,0.3-0.6
			c0-0.1,0.1-0.1,0.2-0.1c0.4,0,0.8,0.2,1.2,0.4C25.6,25.8,25.6,26.2,25.6,26.6z"/>
	</g>
	<g>
		<path d="M47.1,20c0.6,0,1.1-0.2,1.5-0.5c0.4-0.4,0.6-0.8,0.6-1.4h3.2v0.1c0,1.3-0.5,2.4-1.5,3.3s-2.3,1.3-3.8,1.3
			c-1.9,0-3.4-0.6-4.5-1.8c-1-1.2-1.6-2.8-1.6-4.7v-0.4c0-1.9,0.5-3.5,1.6-4.7c1-1.2,2.5-1.8,4.5-1.8c1.6,0,2.9,0.5,3.9,1.4
			s1.5,2.1,1.4,3.6v0.1h-3.2c0-0.7-0.2-1.2-0.6-1.7c-0.4-0.4-0.9-0.7-1.5-0.7c-0.9,0-1.6,0.4-2,1.1s-0.6,1.6-0.6,2.8v0.4
			c0,1.2,0.2,2.1,0.6,2.8S46.2,20,47.1,20z"/>
		<path d="M62,22.5c-0.1-0.3-0.2-0.6-0.3-0.9s-0.2-0.7-0.2-1c-0.4,0.6-0.8,1.2-1.4,1.6c-0.6,0.4-1.3,0.6-2.1,0.6
			c-1.4,0-2.4-0.4-3.1-1.1c-0.7-0.7-1.1-1.7-1.1-2.9c0-1.3,0.5-2.3,1.5-3c1-0.7,2.4-1,4.3-1h2v-1c0-0.6-0.2-1.1-0.5-1.5
			c-0.3-0.3-0.8-0.5-1.5-0.5c-0.6,0-1,0.1-1.3,0.4c-0.3,0.3-0.5,0.7-0.5,1.1h-3.4v-0.1c-0.1-1.1,0.4-2,1.4-2.8s2.3-1.2,4-1.2
			c1.6,0,2.8,0.4,3.8,1.2c1,0.8,1.5,1.9,1.5,3.4v5.4c0,0.6,0,1.2,0.1,1.7s0.2,1.1,0.4,1.6C65.6,22.5,62,22.5,62,22.5z M61.3,7.7
			h-2.8l-3.3-3.1V4.5H59L61.3,7.7z M58.8,20.1c0.6,0,1.2-0.2,1.6-0.5c0.5-0.3,0.8-0.7,1-1.1v-1.8h-2c-0.7,0-1.3,0.2-1.7,0.6
			s-0.6,0.8-0.6,1.3c0,0.4,0.1,0.8,0.4,1C57.9,20,58.3,20.1,58.8,20.1z"/>
		<path d="M72.1,17l0.1,0.7h0.1l2.5-8.3h3.8l-5.3,14.9c-0.4,0.9-0.9,1.7-1.5,2.3c-0.6,0.6-1.6,1-2.8,1c-0.3,0-0.6,0-0.8-0.1
			c-0.3,0-0.6-0.1-0.9-0.2l0.4-2.6c0.1,0,0.2,0,0.3,0c0.1,0,0.2,0,0.3,0c0.6,0,1-0.1,1.3-0.4s0.6-0.6,0.7-1.1l0.4-1l-4.6-13h3.8
			L72.1,17z"/>
		<path d="M84.4,17h-1v5.4h-3.5V3.8h3.5v10.6h0.9l3-4.9h4.1l-4.2,5.9l4.8,7.1h-4L84.4,17z"/>
		<path d="M96.8,6.4h-3.5V3.8h3.5V6.4z M96.8,22.5h-3.5v-13h3.5V22.5z"/>
		<path d="M105.4,22.7c-1.9,0-3.4-0.6-4.5-1.8c-1.1-1.2-1.7-2.7-1.7-4.6v-0.5c0-1.9,0.5-3.5,1.6-4.8c1.1-1.2,2.5-1.9,4.3-1.9
			s3.1,0.5,4.1,1.6s1.5,2.5,1.5,4.3v1.9h-7.8V17c0.1,0.9,0.3,1.6,0.9,2.1c0.5,0.5,1.2,0.8,2.1,0.8c0.8,0,1.4-0.1,1.9-0.2
			c0.5-0.2,1.1-0.4,1.7-0.7l0.9,2.2c-0.5,0.4-1.2,0.8-2.1,1.1C107.4,22.6,106.4,22.7,105.4,22.7z M103.5,4.2h2.9l3.6,3v0.1h-3.1
			l-1.8-1.7l-2,1.7h-3.2V7.2L103.5,4.2z M105.1,12c-0.6,0-1.2,0.2-1.5,0.7c-0.4,0.5-0.6,1.1-0.7,2v0.1h4.3v-0.3
			c0-0.7-0.2-1.3-0.5-1.8C106.3,12.2,105.8,12,105.1,12z M110.6,2h3.2l-2.5,3.3h-2.4L110.6,2z"/>
		<path d="M115.9,9.5l0.1,1.7c0.4-0.6,0.9-1.1,1.6-1.4c0.6-0.3,1.4-0.5,2.2-0.5c0.8,0,1.5,0.2,2.1,0.6c0.6,0.4,1,0.9,1.3,1.7
			c0.4-0.7,0.9-1.2,1.6-1.6c0.6-0.4,1.4-0.6,2.3-0.6c1.3,0,2.3,0.4,3,1.3c0.7,0.9,1.1,2.2,1.1,4v7.9h-3.5v-7.9c0-1-0.2-1.7-0.5-2.1
			c-0.3-0.4-0.8-0.6-1.4-0.6c-0.5,0-0.9,0.1-1.3,0.3s-0.7,0.5-0.9,0.9c0,0.2,0,0.3,0,0.4c0,0.1,0,0.2,0,0.3v8.6h-3.5v-7.9
			c0-1-0.2-1.6-0.5-2s-0.8-0.6-1.4-0.6c-0.5,0-0.9,0.1-1.2,0.3c-0.4,0.2-0.7,0.4-0.9,0.8v9.5h-3.5v-13L115.9,9.5L115.9,9.5z"/>
		<path d="M139.4,20c0.6,0,1.1-0.2,1.5-0.5c0.4-0.4,0.6-0.8,0.6-1.4h3.2v0.1c0,1.3-0.5,2.4-1.5,3.3s-2.3,1.3-3.8,1.3
			c-1.9,0-3.4-0.6-4.5-1.8c-1-1.2-1.6-2.8-1.6-4.7v-0.4c0-1.9,0.5-3.5,1.6-4.7c1-1.2,2.5-1.8,4.5-1.8c1.6,0,2.9,0.5,3.9,1.4
			s1.5,2.1,1.4,3.6v0.1h-3.2c0-0.7-0.2-1.2-0.6-1.7c-0.4-0.4-0.9-0.7-1.5-0.7c-0.9,0-1.6,0.4-2,1.1c-0.4,0.7-0.6,1.6-0.6,2.8v0.4
			c0,1.2,0.2,2.1,0.6,2.8C137.8,19.7,138.4,20,139.4,20z"/>
		<path d="M146.1,15.9c0-1.9,0.5-3.5,1.6-4.8c1.1-1.2,2.6-1.9,4.5-1.9c0.9,0,1.7,0.1,2.4,0.4c0.7,0.3,1.4,0.7,1.9,1.2
			c0.4-0.3,0.8-0.7,1-1.2s0.3-1.2,0.3-2h2.5c0,1.2-0.2,2.2-0.7,3s-1.2,1.4-2.1,1.8c0.2,0.5,0.4,1,0.5,1.6s0.2,1.2,0.2,1.8v0.3
			c0,2-0.5,3.5-1.6,4.8c-1.1,1.2-2.6,1.8-4.5,1.8s-3.4-0.6-4.5-1.8c-1.1-1.2-1.6-2.8-1.6-4.8v-0.2H146.1z M149.6,16.1
			c0,1.2,0.2,2.1,0.6,2.8c0.4,0.7,1.1,1.1,2,1.1s1.6-0.4,2-1.1s0.6-1.7,0.6-2.8v-0.3c0-1.1-0.2-2.1-0.6-2.8c-0.4-0.7-1.1-1.1-2-1.1
			s-1.6,0.4-2,1.1c-0.4,0.7-0.6,1.7-0.6,2.8V16.1z"/>
		<path d="M164.2,9.5l0.1,1.7c0.4-0.6,0.9-1.1,1.6-1.4c0.6-0.3,1.4-0.5,2.2-0.5s1.5,0.2,2.1,0.6c0.6,0.4,1,0.9,1.3,1.7
			c0.4-0.7,0.9-1.2,1.6-1.6c0.6-0.4,1.4-0.6,2.3-0.6c1.3,0,2.3,0.4,3,1.3c0.7,0.9,1.1,2.2,1.1,4v7.9H176v-7.9c0-1-0.2-1.7-0.5-2.1
			c-0.3-0.4-0.8-0.6-1.4-0.6c-0.5,0-0.9,0.1-1.3,0.3c-0.4,0.2-0.7,0.5-0.9,0.9c0,0.2,0,0.3,0,0.4c0,0.1,0,0.2,0,0.3v8.6h-3.5v-7.9
			c0-1-0.2-1.6-0.5-2s-0.8-0.6-1.4-0.6c-0.5,0-0.9,0.1-1.2,0.3c-0.4,0.2-0.7,0.4-0.9,0.8v9.5h-3.5v-13L164.2,9.5L164.2,9.5z"/>
	</g>
</g>
</svg>